<svg xmlns="http://www.w3.org/2000/svg" viewBox="0 0 36.02 36.01"><defs><style>.cls-1{fill:#fff}</style></defs><g id="Layer_2" data-name="Layer 2"><g id="Layer_1-2" data-name="Layer 1"><path class="cls-1" d="M18 0c-4.89 0-5.5 0-7.42.11a13.12 13.12 0 00-4.37.83A8.79 8.79 0 003 3 9 9 0 00.94 6.21a13.12 13.12 0 00-.83 4.37C0 12.5 0 13.11 0 18s0 5.5.11 7.43a13.23 13.23 0 00.83 4.37A8.79 8.79 0 003 33a9 9 0 003.19 2.08 13.12 13.12 0 004.37.83c1.95.09 2.55.09 7.44.09s5.5 0 7.42-.11a13.24 13.24 0 004.38-.83A8.84 8.84 0 0033 33a8.74 8.74 0 002.08-3.19 13.1 13.1 0 00.84-4.37C36 23.5 36 22.9 36 18s0-5.5-.11-7.42a13.22 13.22 0 00-.84-4.38A8.58 8.58 0 0033 3 8.84 8.84 0 0029.81.94 13.16 13.16 0 0025.43.1C23.5 0 22.89 0 18 0zm0 3.24c4.81 0 5.38 0 7.28.11a9.85 9.85 0 013.34.65 5.63 5.63 0 012.07 1.35A5.51 5.51 0 0132 7.39a10.18 10.18 0 01.62 3.34c.08 1.91.11 2.47.11 7.28s0 5.37-.11 7.27a9.93 9.93 0 01-.62 3.35 5.63 5.63 0 01-1.35 2.07 5.48 5.48 0 01-2.03 1.3 9.78 9.78 0 01-3.34.63c-1.9.08-2.47.1-7.28.1s-5.37 0-7.27-.1A9.86 9.86 0 017.38 32a5.48 5.48 0 01-2.07-1.3A5.48 5.48 0 014 28.63a9.86 9.86 0 01-.63-3.35c-.08-1.9-.1-2.46-.1-7.27s0-5.37.1-7.28A9.84 9.84 0 014 7.39a5.61 5.61 0 011.31-2.07A5.63 5.63 0 017.38 4a10.19 10.19 0 013.35-.62c1.9-.09 2.47-.11 7.27-.11"/><path class="cls-1" d="M18 24a6 6 0 116-6 6 6 0 01-6 6zm0-15.24A9.25 9.25 0 1027.25 18 9.25 9.25 0 0018 8.76zm9.61-2.53a2.23 2.23 0 011.53.63 2.33 2.33 0 01.47.7 2.23 2.23 0 010 1.66 2.33 2.33 0 01-.47.7 2.23 2.23 0 01-1.53.63 2.11 2.11 0 01-.82-.17 2.08 2.08 0 01-.7-.46 2.16 2.16 0 010-3.06 2.08 2.08 0 01.7-.46 2.11 2.11 0 01.82-.17z"/></g></g></svg>